<?xml version="1.0" encoding="utf-8"?>
<!-- Generator: Adobe Illustrator 25.0.0, SVG Export Plug-In . SVG Version: 6.00 Build 0)  -->
<svg version="1.1" id="Layer_1" xmlns="http://www.w3.org/2000/svg" xmlns:xlink="http://www.w3.org/1999/xlink" x="0px" y="0px"
	 viewBox="0 0 3000 3000" style="enable-background:new 0 0 3000 3000;" xml:space="preserve">
<style type="text/css">
	.st0{fill:url(#SVGID_1_);}
	.st1{fill:#E0E0E0;}
	.st2{fill:#D9D9D9;}
	.st3{fill:#B8B8B8;}
	.st4{opacity:0.43;}
	.st5{fill:url(#SVGID_2_);}
	.st6{opacity:0.22;}
	.st7{fill:url(#SVGID_3_);}
	.st8{fill:url(#SVGID_4_);}
	.st9{fill:url(#SVGID_5_);}
	.st10{fill:#FF8557;}
	.st11{fill:#0064B5;}
	.st12{fill:#004E8C;}
	.st13{fill:#26337F;}
	.st14{fill:url(#SVGID_6_);}
	.st15{fill:#6A75BA;}
	.st16{fill:#545D94;}
	.st17{fill:#EEA886;}
	.st18{fill:#D9D3C8;}
	.st19{fill:#222538;}
	.st20{fill:#FFC955;}
	.st21{fill:#A77860;}
	.st22{fill:#C29941;}
	.st23{fill:#FFFFFF;}
	.st24{filter:url(#Adobe_OpacityMaskFilter);}
	.st25{filter:url(#Adobe_OpacityMaskFilter_1_);}
	.st26{mask:url(#SVGID_7_);fill:url(#SVGID_8_);}
	.st27{fill:url(#SVGID_9_);}
	.st28{filter:url(#Adobe_OpacityMaskFilter_2_);}
	.st29{filter:url(#Adobe_OpacityMaskFilter_3_);}
	.st30{mask:url(#SVGID_10_);fill:url(#SVGID_11_);}
	.st31{fill:url(#SVGID_12_);}
	.st32{filter:url(#Adobe_OpacityMaskFilter_4_);}
	.st33{filter:url(#Adobe_OpacityMaskFilter_5_);}
	.st34{mask:url(#SVGID_13_);fill:url(#SVGID_14_);}
	.st35{fill:url(#SVGID_15_);}
	.st36{filter:url(#Adobe_OpacityMaskFilter_6_);}
	.st37{filter:url(#Adobe_OpacityMaskFilter_7_);}
	.st38{mask:url(#SVGID_16_);fill:url(#SVGID_17_);}
	.st39{fill:url(#SVGID_18_);}
	.st40{fill:#C5C6CF;}
	.st41{fill:#E2E3ED;}
	.st42{fill:#EEA987;}
	.st43{fill:#E6D3CD;}
	.st44{fill:#3C4145;}
	.st45{fill:#163342;}
	.st46{fill:#EFAA88;}
	.st47{opacity:0.76;}
	.st48{fill:url(#SVGID_19_);}
	.st49{fill:url(#SVGID_20_);}
	.st50{fill:url(#SVGID_21_);}
	.st51{fill:url(#SVGID_22_);}
	.st52{fill:url(#SVGID_23_);}
	.st53{fill:#007BDE;}
	.st54{fill:url(#SVGID_24_);}
	.st55{fill:url(#SVGID_25_);}
	.st56{fill:url(#SVGID_26_);}
	.st57{fill:url(#SVGID_27_);}
	.st58{fill:#898FBF;}
	.st59{fill:#152B3D;}
	.st60{fill:#FFC05C;}
	.st61{fill:#254380;}
	.st62{fill:#353A3D;}
	.st63{fill:#E55353;}
	.st64{fill:#5DA9DD;}
	.st65{fill:#4867AA;}
	.st66{fill:#1F47DB;}
	.st67{fill:#0478B5;}
	.st68{fill:#F44056;}
	.st69{fill:#81807E;}
	.st70{fill:#2D3133;}
	.st71{fill:#DECBC4;}
	.st72{fill:#495055;}
	.st73{fill:#51565C;}
	.st74{fill:#F5E2D9;}
	.st75{fill:#323657;}
	.st76{fill:#AD9F99;}
	.st77{fill:#69737A;}
	.st78{fill:#D9C9C2;}
	.st79{fill:#DB9C7C;}
	.st80{fill:#4C5385;}
	.st81{fill:#EAD8CF;}
	.st82{fill:#DA9B5B;}
	.st83{fill:#424773;}
	.st84{fill:#292C47;}
	.st85{fill:#E2D2CA;}
</style>
<linearGradient id="SVGID_1_" gradientUnits="userSpaceOnUse" x1="1893.7509" y1="971.4973" x2="1538.5532" y2="1983.4774">
	<stop  offset="0" style="stop-color:#C6CBCF"/>
	<stop  offset="1" style="stop-color:#F8F1FE"/>
</linearGradient>
<path class="st0" d="M2489.48,1318.76c-0.04-0.15-0.08-0.29-0.12-0.44c-66.14-230.67-231.22-427.83-459.28-529.28h-0.02
	c-39.07-17.54-80.07-32.08-122.63-43.54c-106.49-28.66-213.78-35.15-316.91-22.39c-0.08,0.02-0.19,0.02-0.27,0.04l-0.15-0.04
	c-69.39,8.69-136.94,26.02-201.17,51.41c-0.13,0.04-0.25,0.1-0.38,0.15c-235.87,92.77-426.13,292.42-497.03,555.93
	c-119.02,442.25,142.94,897.1,585.04,1016.08c227.03,61.09,457.37,21.76,643.91-90.8l34.83,48.36l164.11-118.18l-39.62-55.01
	c98.85-99.13,173.9-224.68,212.89-369.58C2533.23,1610.77,2529.56,1458.56,2489.48,1318.76z M1882.45,2076.22
	c-293.12,105.04-615.91-47.4-720.95-340.52c-103.09-287.66,41.82-603.92,324.32-714.86c5.35-2.1,10.74-4.13,16.2-6.09
	c39.99-14.33,80.53-23.88,120.99-28.91c103.74-12.93,206.96,3.69,299.12,44.86c135.38,60.47,246.87,173.95,300.84,324.57
	c4.24,11.86,8.08,23.75,11.5,35.69C2315.45,1674.14,2163.71,1975.42,1882.45,2076.22z"/>
<g>
	<g>
		<rect x="1227.49" y="1546.33" class="st1" width="6.21" height="651.84"/>
	</g>
	<g>
		<rect x="1669.25" y="1546.33" class="st1" width="6.21" height="651.84"/>
	</g>
	<g>
		<rect x="2111" y="1546.33" class="st1" width="6.21" height="651.84"/>
	</g>
	<rect x="788.84" y="1466.01" class="st2" width="105.81" height="16.99"/>
	<rect x="788.84" y="1497.42" class="st2" width="150.09" height="16.99"/>
	<rect x="1225.84" y="1466.01" class="st2" width="124.22" height="16.99"/>
	<rect x="1225.84" y="1497.42" class="st2" width="79.43" height="16.99"/>
	<rect x="1675.46" y="1466.01" class="st2" width="76.98" height="16.99"/>
	<rect x="1675.46" y="1497.42" class="st2" width="89.72" height="16.99"/>
	<rect x="2117.22" y="1466.01" class="st2" width="112.13" height="16.99"/>
	<rect x="2117.22" y="1497.42" class="st2" width="89.72" height="16.99"/>
	<rect x="1230.6" y="2236.78" class="st3" width="70.28" height="22.66"/>
	<rect x="1675.46" y="2236.78" class="st3" width="70.28" height="22.66"/>
	<rect x="2117.22" y="2236.78" class="st3" width="70.28" height="22.66"/>
	<rect x="2558.97" y="2236.78" class="st3" width="70.28" height="22.66"/>
	<g class="st4">
		<linearGradient id="SVGID_2_" gradientUnits="userSpaceOnUse" x1="788.8417" y1="1859.9099" x2="2555.8665" y2="1859.9099">
			<stop  offset="0" style="stop-color:#FFC05C"/>
			<stop  offset="1" style="stop-color:#FF3857"/>
		</linearGradient>
		<path class="st5" d="M2402.78,2004.49c-137.79,0.01-257.56-59.57-382.43-121.66c-154.16-76.66-313.56-155.92-525.94-134.22
			c-135.62,13.86-220.74,69.09-295.85,117.82c-68,44.12-132.29,82.92-219.37,86.23c-140.72,5.35-189.54-54.66-190.36-58.33v-38.52
			l0,0l0,0c0.18,0.67,30.9,68.03,190.21,67.23c78.45-0.4,136.35-37.96,203.4-81.46c77.91-50.55,166.22-107.85,308.95-122.43
			c220.9-22.58,384.21,58.63,542.13,137.16c165.25,82.17,322.94,159.23,522.33,92.38v31.67
			C2499.03,1999.42,2453.57,2004.49,2402.78,2004.49z"/>
	</g>
	<g class="st6">
		<linearGradient id="SVGID_3_" gradientUnits="userSpaceOnUse" x1="788.8417" y1="1812.0945" x2="2556.7993" y2="1812.0945">
			<stop  offset="0" style="stop-color:#40D5E6"/>
			<stop  offset="1" style="stop-color:#5577FF"/>
		</linearGradient>
		<path class="st7" d="M1575.72,1997.11c-101.7,0.01-182.37-68.4-261.34-135.35c-59.88-50.77-122-102.67-193.71-128.28
			c-218.85-78.14-330.82,64.54-331.82,65.8v-43.4c1.18-1.48,21.16-27.42,78.94-52.18c52.61-22.54,140.87-40.53,262.61,1.82
			c77.13,26.83,141.19,81.14,203.13,133.66c125.66,106.54,234.19,198.55,422.67,54.43c142.75-109.16,277.32-213.18,409.72-251.18
			c129.5-37.17,264.51-9.96,390.89,116.42l-0.93,39.42c-268.45-269.63-497.03-98.8-781.69,118.87
			C1698.77,1974.78,1633.81,1997.11,1575.72,1997.11z"/>
	</g>
</g>
<g>
	<linearGradient id="SVGID_4_" gradientUnits="userSpaceOnUse" x1="1787.4347" y1="1251.8982" x2="2417.6477" y2="1251.8982">
		<stop  offset="0" style="stop-color:#8FD6FF"/>
		<stop  offset="1" style="stop-color:#BFEBFE"/>
	</linearGradient>
	<polygon class="st8" points="1791.92,1390.61 1787.43,1385.35 1861.85,1321.95 1907.04,1321.95 2009.58,1234.6 2073.72,1289.23 
		2121.01,1289.23 2144.92,1309.6 2219.18,1246.33 2256.88,1246.33 2413.16,1113.18 2417.65,1118.45 2259.42,1253.24 
		2221.73,1253.24 2144.92,1318.68 2118.47,1296.15 2071.17,1296.15 2009.58,1243.68 1909.59,1328.87 1864.4,1328.87 	"/>
</g>
<g>
	<linearGradient id="SVGID_5_" gradientUnits="userSpaceOnUse" x1="1776.9523" y1="1170.981" x2="2405.1262" y2="1170.981">
		<stop  offset="0" style="stop-color:#8FD6FF"/>
		<stop  offset="1" style="stop-color:#BFEBFE"/>
	</linearGradient>
	<polygon class="st9" points="1802.67,1303.05 1776.95,1303.05 1776.95,1296.13 1799.8,1296.13 1838.42,1257.51 1866.5,1285.59 
		1933.58,1218.51 1954.21,1239.15 2022.22,1171.14 2062.98,1211.89 2109.44,1211.89 2181.16,1140.17 2243.01,1140.17 
		2288.73,1094.45 2344.7,1094.45 2400.24,1038.92 2405.13,1043.81 2347.57,1101.37 2291.6,1101.37 2245.87,1147.09 2184.02,1147.09 
		2112.3,1218.81 2060.11,1218.81 2022.22,1180.92 1954.21,1248.93 1933.58,1228.29 1866.5,1295.37 1838.42,1267.29 	"/>
</g>
<g>
	<path class="st10" d="M2652.78,1271.76l-163.42,46.56l-254.88,72.64c-3.42-11.94-7.26-23.84-11.5-35.69
		c-53.97-150.62-165.45-264.1-300.84-324.57l107.92-241.67h0.02l11.35-25.43l58-129.89
		C2374.3,755.99,2573.21,993.71,2652.78,1271.76z"/>
</g>
<g>
	<path class="st11" d="M2041.42,763.61l-11.35,25.43l-107.94,241.67c-92.16-41.17-195.38-57.79-299.12-44.86l-32.5-262.73
		l-3.4-27.55c106.62-13.24,217.54-6.53,327.64,23.1C1958.69,730.47,2001.07,745.5,2041.42,763.61z"/>
</g>
<g>
	<path class="st12" d="M1623.02,985.84c-40.46,5.04-81,14.58-120.99,28.91c-5.46,1.95-10.85,3.99-16.2,6.09l-96.9-246.32
		l-29.33-74.55c70.53-27.93,144.7-46.98,220.91-56.51l0.17,0.04l6.44,52.06l3.4,27.55L1623.02,985.84z"/>
</g>
<path class="st13" d="M1011.7,2260.33H449.01c-30.21,0-54.7-24.49-54.7-54.7v-685.82c0-30.21,24.49-54.7,54.7-54.7h562.69
	c30.21,0,54.7,24.49,54.7,54.7v685.82C1066.4,2235.84,1041.91,2260.33,1011.7,2260.33z"/>
<linearGradient id="SVGID_6_" gradientUnits="userSpaceOnUse" x1="2073.7092" y1="2008.9803" x2="2717.928" y2="2921.0222">
	<stop  offset="0" style="stop-color:#C6CBCF"/>
	<stop  offset="1" style="stop-color:#F8F1FE"/>
</linearGradient>
<polygon class="st14" points="2681.4,2634.94 2354.62,2634.94 2127.53,2319.55 2234.03,2242.85 2342.73,2164.6 2396.86,2239.79 "/>
<g>
	<g>
		<g>
			<path class="st15" d="M1515.38,586.33c0,0-11.78-21.62-18.47-29.4c-6.7-7.78-28.95-13.61-25.93-23.55
				c3.03-9.94,32.84-5.62,41.05,4.11c8.21,9.72,33.27,13.18,34.14,17.29c0.86,4.11-8.7,26.58-14.08,30.25
				C1526.73,588.7,1515.38,586.33,1515.38,586.33z"/>
			<path class="st16" d="M1465.33,604.63c0,0-19.18-15.21-28.42-19.69c-9.24-4.48-31.98-1-33.15-11.32
				c-1.17-10.32,27.91-18.2,39.31-12.53c11.4,5.66,35.77-1.12,38.2,2.31c2.42,3.42,2.57,27.85-0.91,33.35
				C1476.89,602.26,1465.33,604.63,1465.33,604.63z"/>
			<path class="st17" d="M1507.93,644.23c0,0,8.37-57.26,8-67.2c-0.11-2.84,17.23-1.78,16.42,3.67
				c-1.76,11.88,6.24,57.91,4.85,66.33C1535.8,655.46,1507.22,649.54,1507.93,644.23z"/>
			<path class="st17" d="M1481.69,660.69c0,0-15.69-55.6-19.35-64.85c-1.63-4.12,14.36-10.49,16.53-3.15
				c3.4,11.52,28.72,50.67,30.79,58.96C1511.73,659.93,1483.14,665.84,1481.69,660.69z"/>
			<path class="st18" d="M1492.59,699.33c0,0-16.85-56.83-19.45-62.88l26.58-16.42c0,0,12.32,36.3,14.05,45.38
				C1515.49,674.48,1492.59,699.33,1492.59,699.33z"/>
			<path class="st19" d="M1963.03,549.19c0,0-25.67,6.49-37.88,25.9c-12.21,19.41-22.76,41.76-45.71,51.9
				c-22.94,10.14-23.09,36.27-21.31,40.3c1.79,4.03,72.27,83.26,87.65,86.33c15.38,3.06,44.18,0.93,41.1-19.43
				c-3.08-20.36-33.26-64.16-16.32-86.25c16.94-22.09,21.21-42.45,21.21-42.45L1963.03,549.19z"/>
			<path class="st17" d="M1958.56,643.94c0,0-0.75-0.25-2.01-0.36c-1.46-0.14-3.58-0.09-6,0.72c-0.6,0.2-1.41,0.61-2.35,1.17
				c-6.1,3.59-20.53,13.35-22.48,13.58c-2.25,0.27-0.35-33.4-0.35-33.4s7.68-13.59,8.65-22.54
				C1934.98,594.16,1958.56,643.94,1958.56,643.94z"/>
			<path class="st18" d="M1778.02,679.12c0,0-28.2-19.77-61.26-13.61c-33.06,6.16-36.62,21.61-47.97,22.31
				c-11.34,0.7-49.26-2.54-80.38,6.53c-31.11,9.07-57.37,10.05-60.93,7.45c-3.56-2.59,19.45-54.45,19.45-61.58l-38.57-10.05
				c0,0-11.02,46.02-15.34,56.4c-4.62,11.09-13.5,31.98-0.86,50.13c12.64,18.15,47.97,9.97,69.36,13.63
				c21.39,3.66,117.14,1.31,133.86,0.42c18.15-0.97,72.92-3.56,72.92-3.56L1778.02,679.12z"/>
			<path class="st17" d="M2009.61,576.65c0,0,1.8,27.86-4.39,36.21c-2.47,3.34-4.15,5.16-5.28,6.14c-1.59,1.38-2.82,3.12-3.52,5.1
				c-1.91,5.36-3.09,12.9-4.61,14.51c-1.66,1.76-6.47-2.71-8.21-2.72c-1.74-0.01-18.71,14.63-22.77,11.64
				c-4.06-3-28.81-28.12-26.73-45.34c2.08-17.22,9.68-42.93,37.55-42.78C1999.52,559.58,2007.48,569.72,2009.61,576.65z"/>
			<path class="st20" d="M1925.38,709.59c-0.53,1.14-10.78,17.51-22.01,27.01c-4.66,3.94-9.49,6.7-13.86,6.7
				c-1.34,0-2.64,0.02-3.9,0.05c-12.88,0.35-22.78,2.32-40.18,3.19c-18.07,0.9-61.9-1.62-63.2-1.62c-1.3,0-13.94,2.27-13.94,2.27
				c-4.54-5.51,7.45-67.74,9.72-68.06c2.27-0.32,16.85,5.19,30.79,2.92c13.94-2.27,19.45-3.57,40.19-27.87
				c20.74-24.31,41.48-30.47,50.24-28.52c8.75,1.94,26.15,0,26.15,0S1926.14,707.97,1925.38,709.59z"/>
			<path class="st19" d="M1997.9,596.6c0,0,5.19,13.46,7.95,15.31c0,0,10.03-10.6,3.59-36.76c-6.44-26.16-30.72-28.62-46.4-25.96
				c-19.52,3.31-39.16,69.34-38.15,75.77c1.01,6.43,22.88-34.12,42.04-30.86C1986.08,597.36,1986.23,598.42,1997.9,596.6z"/>
			<path class="st21" d="M1956.6,643.63c-1.46-0.14-3.59-0.03-6.01,0.78c-0.6,0.2-1.45,0.5-2.39,1.06
				c-4.48-6.99-8.63-23.56-8.77-24.12C1942.42,627.72,1956.6,643.63,1956.6,643.63z"/>
			<path class="st22" d="M1903.37,736.6c-4.66,3.94-9.49,6.7-13.86,6.7c-1.34,0-2.64,0.02-3.9,0.05l6.36-51.58L1903.37,736.6z"/>
			<path class="st17" d="M2004.22,825.43l-12.44,11.32c-10.73-5.75-37.63-25.11-42.81-29.52c-5.43-4.62-41.61-34.89-46.58-41.79
				c-5.01-6.9-11.36-78.2-10.72-81.46c0.64-3.22,31.46-4.88,34.96,2.67c0,0,1.61,40.66,2.44,47.47c0.78,6.81,3.39,12.96,8.06,18.68
				c6.46,7.93,20.22,26.33,33.54,41.21C1973.84,797.55,2000.11,821.89,2004.22,825.43z"/>
			<path class="st20" d="M1929.16,687.55c0,0,1.94-54.15-15.67-53.48c-22.27,0.85-25.61,28.09-22.58,57.69
				C1890.92,691.76,1924.19,692.09,1929.16,687.55z"/>
			<path class="st17" d="M1998.23,820.13c0,0,1.66,2.61,4.06,3.42c4.14,1.4,10.27-1.3,13.3,4.13c3.02,5.43-11.57,18.99-15.49,19.82
				c-3.92,0.82-10.21-5.28-15.12-17.32S1998.23,820.13,1998.23,820.13z"/>
			<path class="st17" d="M2014.3,825.99c0,0,7.45,5.67,14.98,12.95c6.61,6.39,13.32,14.77,11.63,16.35
				c-2.32,2.16-6.82-5.04-13.79-10.95c-6.42-5.44-6.05-3.34-6.05-3.34s-0.07-0.6,5.78,6.63c6.29,7.78,12.8,17.01,10.86,18.34
				c-1.22,0.84-1.27,1.06-4.02-1.41c1.28,1.74,0.98,2.32,0.3,2.89c-3.51,2.94-14.54-7.12-18.92-11.12c3.34,3.09,5.47,5.7,2.08,6.1
				c-3.89,0.46-18.84-14.45-24.71-19.3C1986.03,837.83,2014.3,825.99,2014.3,825.99z"/>
		</g>
		<path class="st1" d="M1790.69,681.6c0,0-5.94,42.61-3.01,63.57c0,0,3.1,2.3,9.27,0.44c0,0,1.54-46.52,4.99-63.03
			C1801.94,682.59,1800.04,681.15,1790.69,681.6z"/>
	</g>
</g>
<g>
	
		<rect x="2511.48" y="2068.16" transform="matrix(-1 -1.224647e-16 1.224647e-16 -1 5112.1582 4142.5747)" class="st23" width="89.2" height="6.25"/>
	
		<rect x="2511.48" y="2079.95" transform="matrix(-1 -1.224647e-16 1.224647e-16 -1 5112.1582 4186.1807)" class="st23" width="89.2" height="26.29"/>
	
		<rect x="2469.57" y="2115.07" transform="matrix(-1 -1.224647e-16 1.224647e-16 -1 4991.7715 4234.0771)" class="st23" width="52.62" height="3.93"/>
	
		<rect x="2469.57" y="2120.72" transform="matrix(-1 -1.224647e-16 1.224647e-16 -1 4991.7715 4252.0835)" class="st23" width="52.62" height="10.64"/>
	
		<rect x="2615.33" y="2034.46" transform="matrix(-1 -1.224647e-16 1.224647e-16 -1 5234.5913 4142.5728)" class="st23" width="3.93" height="73.66"/>
</g>
<defs>
	<filter id="Adobe_OpacityMaskFilter" filterUnits="userSpaceOnUse" x="168.17" y="1536.36" width="112.02" height="54.45">
		<feFlood  style="flood-color:white;flood-opacity:1" result="back"/>
		<feBlend  in="SourceGraphic" in2="back" mode="normal"/>
	</filter>
</defs>
<mask maskUnits="userSpaceOnUse" x="168.17" y="1536.36" width="112.02" height="54.45" id="SVGID_7_">
	<g class="st24">
		<defs>
			<filter id="Adobe_OpacityMaskFilter_1_" filterUnits="userSpaceOnUse" x="168.17" y="1536.36" width="112.02" height="54.45">
				<feFlood  style="flood-color:white;flood-opacity:1" result="back"/>
				<feBlend  in="SourceGraphic" in2="back" mode="normal"/>
			</filter>
		</defs>
		<mask maskUnits="userSpaceOnUse" x="168.17" y="1536.36" width="112.02" height="54.45" id="SVGID_7_">
			<g class="st25">
			</g>
		</mask>
		<linearGradient id="SVGID_8_" gradientUnits="userSpaceOnUse" x1="218.6651" y1="1297.1866" x2="228.0998" y2="1753.1804">
			<stop  offset="0" style="stop-color:#FFFFFF"/>
			<stop  offset="1" style="stop-color:#000000"/>
		</linearGradient>
		<polygon class="st26" points="194.42,1590.81 280.19,1590.81 253.93,1536.36 168.17,1536.36 		"/>
	</g>
</mask>
<linearGradient id="SVGID_9_" gradientUnits="userSpaceOnUse" x1="218.6651" y1="1297.1866" x2="228.0998" y2="1753.1804">
	<stop  offset="0" style="stop-color:#40D5E6"/>
	<stop  offset="1" style="stop-color:#5577FF"/>
</linearGradient>
<polygon class="st27" points="194.42,1590.81 280.19,1590.81 253.93,1536.36 168.17,1536.36 "/>
<defs>
	<filter id="Adobe_OpacityMaskFilter_2_" filterUnits="userSpaceOnUse" x="128.04" y="1536.36" width="46.69" height="54.45">
		<feFlood  style="flood-color:white;flood-opacity:1" result="back"/>
		<feBlend  in="SourceGraphic" in2="back" mode="normal"/>
	</filter>
</defs>
<mask maskUnits="userSpaceOnUse" x="128.04" y="1536.36" width="46.69" height="54.45" id="SVGID_10_">
	<g class="st28">
		<defs>
			<filter id="Adobe_OpacityMaskFilter_3_" filterUnits="userSpaceOnUse" x="128.04" y="1536.36" width="46.69" height="54.45">
				<feFlood  style="flood-color:white;flood-opacity:1" result="back"/>
				<feBlend  in="SourceGraphic" in2="back" mode="normal"/>
			</filter>
		</defs>
		<mask maskUnits="userSpaceOnUse" x="128.04" y="1536.36" width="46.69" height="54.45" id="SVGID_10_">
			<g class="st29">
			</g>
		</mask>
		<linearGradient id="SVGID_11_" gradientUnits="userSpaceOnUse" x1="145.9003" y1="1298.6923" x2="155.3349" y2="1754.6855">
			<stop  offset="0" style="stop-color:#FFFFFF"/>
			<stop  offset="1" style="stop-color:#000000"/>
		</linearGradient>
		<polygon class="st30" points="154.29,1590.81 174.72,1590.81 148.47,1536.36 128.04,1536.36 		"/>
	</g>
</mask>
<linearGradient id="SVGID_12_" gradientUnits="userSpaceOnUse" x1="145.9003" y1="1298.6923" x2="155.3349" y2="1754.6855">
	<stop  offset="0" style="stop-color:#40D5E6"/>
	<stop  offset="1" style="stop-color:#5577FF"/>
</linearGradient>
<polygon class="st31" points="154.29,1590.81 174.72,1590.81 148.47,1536.36 128.04,1536.36 "/>
<defs>
	<filter id="Adobe_OpacityMaskFilter_4_" filterUnits="userSpaceOnUse" x="2459.41" y="574.96" width="95.11" height="36.68">
		<feFlood  style="flood-color:white;flood-opacity:1" result="back"/>
		<feBlend  in="SourceGraphic" in2="back" mode="normal"/>
	</filter>
</defs>
<mask maskUnits="userSpaceOnUse" x="2459.41" y="574.96" width="95.11" height="36.68" id="SVGID_13_">
	<g class="st32">
		<defs>
			<filter id="Adobe_OpacityMaskFilter_5_" filterUnits="userSpaceOnUse" x="2459.41" y="574.96" width="95.11" height="36.68">
				<feFlood  style="flood-color:white;flood-opacity:1" result="back"/>
				<feBlend  in="SourceGraphic" in2="back" mode="normal"/>
			</filter>
		</defs>
		<mask maskUnits="userSpaceOnUse" x="2459.41" y="574.96" width="95.11" height="36.68" id="SVGID_13_">
			<g class="st33">
			</g>
		</mask>
		<linearGradient id="SVGID_14_" gradientUnits="userSpaceOnUse" x1="2559.3201" y1="397.4416" x2="2449.9131" y2="806.7053">
			<stop  offset="0" style="stop-color:#FFFFFF"/>
			<stop  offset="1" style="stop-color:#000000"/>
		</linearGradient>
		<polygon class="st34" points="2459.41,611.64 2554.52,611.64 2554.52,574.96 2459.41,574.96 		"/>
	</g>
</mask>
<linearGradient id="SVGID_15_" gradientUnits="userSpaceOnUse" x1="2559.3201" y1="397.4416" x2="2449.9131" y2="806.7053">
	<stop  offset="0" style="stop-color:#40D5E6"/>
	<stop  offset="1" style="stop-color:#5577FF"/>
</linearGradient>
<polygon class="st35" points="2459.41,611.64 2554.52,611.64 2554.52,574.96 2459.41,574.96 "/>
<defs>
	<filter id="Adobe_OpacityMaskFilter_6_" filterUnits="userSpaceOnUse" x="2459.41" y="557.85" width="95.11" height="6.9">
		<feFlood  style="flood-color:white;flood-opacity:1" result="back"/>
		<feBlend  in="SourceGraphic" in2="back" mode="normal"/>
	</filter>
</defs>
<mask maskUnits="userSpaceOnUse" x="2459.41" y="557.85" width="95.11" height="6.9" id="SVGID_16_">
	<g class="st36">
		<defs>
			<filter id="Adobe_OpacityMaskFilter_7_" filterUnits="userSpaceOnUse" x="2459.41" y="557.85" width="95.11" height="6.9">
				<feFlood  style="flood-color:white;flood-opacity:1" result="back"/>
				<feBlend  in="SourceGraphic" in2="back" mode="normal"/>
			</filter>
		</defs>
		<mask maskUnits="userSpaceOnUse" x="2459.41" y="557.85" width="95.11" height="6.9" id="SVGID_16_">
			<g class="st37">
			</g>
		</mask>
		<linearGradient id="SVGID_17_" gradientUnits="userSpaceOnUse" x1="2543.2825" y1="425.4268" x2="2458.5483" y2="742.3962">
			<stop  offset="0" style="stop-color:#FFFFFF"/>
			<stop  offset="1" style="stop-color:#000000"/>
		</linearGradient>
		<polygon class="st38" points="2459.41,564.75 2554.52,564.75 2554.52,557.85 2459.41,557.85 		"/>
	</g>
</mask>
<linearGradient id="SVGID_18_" gradientUnits="userSpaceOnUse" x1="2543.2825" y1="425.4268" x2="2458.5483" y2="742.3962">
	<stop  offset="0" style="stop-color:#40D5E6"/>
	<stop  offset="1" style="stop-color:#5577FF"/>
</linearGradient>
<polygon class="st39" points="2459.41,564.75 2554.52,564.75 2554.52,557.85 2459.41,557.85 "/>
<g>
	<polygon class="st40" points="2442.07,1920.22 2804.62,1896.91 2806.61,2108.86 2480.36,2108.86 	"/>
	<polygon class="st41" points="2457.77,1900.48 2804.62,1896.91 2806.61,2108.86 2480.36,2108.86 	"/>
	<g>
		<path class="st42" d="M2452.27,1653.72c0,0,8.25,9.07,11.49,5.08c3.24-3.99,6.93-9.67,6.93-9.67L2452.27,1653.72z"/>
		<path class="st42" d="M2435.98,1567.02l10.61,49.33c-3.27-4.02-9-10.43-10.85-8.53c-2.65,2.72,6.2,16.18,7.72,21.98
			c1.39,5.31,3.22,13.6,5.51,18.5l4.01,8.07l17.72-7.25c0,0-0.82-35.17-1.49-43.09c-1.09-12.87-25.86-40.77-28.26-41.05
			C2436.61,1564.47,2435.98,1567.02,2435.98,1567.02z"/>
	</g>
	<path class="st43" d="M2799.16,2500.66c0,0,4.99,12.03,9.2,16.8c4.21,4.77,20.32,13.29,20.4,27.45
		c0.1,15.35-27.16,11.09-37.81,10.53c-10.66-0.56-11.46-8.77-15.95-17.46c-4.49-8.7-9.01-7.22-9.85-14.23
		c-0.84-7.01,3.44-22.71,3.44-22.71L2799.16,2500.66z"/>
	<g>
		<path class="st43" d="M2547.99,2503.42c0,0-14.85,15.59-29.92,18.85c-15.07,3.27-25.61,7.43-25.73,16.38
			c-0.11,8.95,43.37,14.84,60.62,5.82c25.74-13.46,28.36-9.4,31.21-16.13c2.85-6.73-3.43-24.72-3.24-26.86
			C2581.16,2498.84,2547.99,2503.42,2547.99,2503.42z"/>
	</g>
	<g>
		<path class="st44" d="M2587.58,2053.27c0,0-15.59,113.26-21.96,151.55c-7.45,44.77-9.97,81.76-12.05,104.93
			c-2.61,29.15-7.62,182.39-9.45,190.91c-1.83,8.52,40.8,4.27,40.8,4.27s30.92-198.71,38.7-229.75
			c7.24-28.9,27.17-148.05,33.78-140.16c6.61,7.89,48.11,147.29,53.01,170.09c4.89,22.79,52.1,201.25,52.1,201.25
			s35.28,7.58,44.25,0.44c0,0-30.79-163.95-33.91-206.68c-1.19-16.29-10.84-194.16-38.38-266.22
			C2719.91,1995.82,2587.58,2053.27,2587.58,2053.27z"/>
	</g>
	<path class="st20" d="M2633.33,1781.63c0,0-41.26,8.53-46.16,12.87c-5.31,4.62-14.69,49.81-15.25,62.39
		c-0.56,12.59,4.97,65.17,10.29,84.76c5.32,19.58,4.1,121.79,1.72,137.87c0,0,82.76,16.19,164.45,5.56c0,0-14.12-88.76-10.85-115.59
		c4.19-34.38,14.27-113.57,14.27-113.57s-10.91-53.33-18.19-59.48c-7.27-6.15-57.83-16.17-57.83-16.17L2633.33,1781.63z"/>
	<path class="st17" d="M2650.39,1654.04c0,0-49.63-18.37-46.53,47.59c3.1,65.96,14.73,72.66,47.38,63.45
		c32.65-9.21,35.39-50.84,39.64-70.86C2695.13,1674.2,2666.62,1656.92,2650.39,1654.04z"/>
	<path class="st17" d="M2625.16,1792.07c0,0,25.78,20.91,50.62-11.82c0,0-1.09-26.55,6.5-51.35c7.6-24.8-51.97,33.07-51.97,33.07
		c0.62,0.44,0.75,2.92,0.39,6.38c-0.3,2.93-0.95,6.56-1.91,10.25C2626.61,1786.88,2627.12,1785.41,2625.16,1792.07z"/>
	<path class="st45" d="M2683.98,1726.93c0,0,0.14-17.62-7.19-19.24c-7.33-1.62-11.1,8.56-11.1,8.56l-5.9-0.32
		c0,0,5.27-17.85-1.71-21.95c-6.99-4.09-48.77-0.5-54.02-6.51c-5.24-6.01,2.36-41.71,13.76-45.22c11.4-3.5,42.54-10.61,62.32,7
		c0,0,17.72,0.12,17.68,21.35C2697.8,1684.64,2689.94,1717.38,2683.98,1726.93z"/>
	<path class="st21" d="M2628.79,1778.59c38.47-6.47,44.22-28.35,44.31-28.69c-14.96,19.29-42.39,18.44-42.39,18.44
		C2630.4,1771.27,2629.76,1774.91,2628.79,1778.59z"/>
	<path class="st17" d="M2668.5,1700.21c2.19-5.81,14.57-5.08,13.3,4.14c-1.27,9.21-11.5,23.41-15.61,20.74
		C2662.09,1722.43,2665.48,1708.23,2668.5,1700.21z"/>
	<path class="st17" d="M2689.17,1783.07c0,0-23.27,47.03-57.53,43.23c-34.25-3.81-14.4-36.63-11.12-41.86
		C2620.52,1784.44,2641.07,1771.25,2689.17,1783.07z"/>
	<g>
		<path class="st20" d="M2473.01,1745.1c-9.67-18.83-30.94-91.55-30.94-91.55l30.1-6.3c0,0,16.02,36.59,23.64,61.92
			c3.71,12.34,8.7,24.46,9.8,26.41c1.11,1.95,52.39,40.79,57.98,43.64c5.59,2.85,27.06,10.29,37.33,20.72
			c10.27,10.42,5.27,24.7,5.27,24.7c-21.77,28.01-61.99-8.41-61.99-8.41S2486.57,1771.49,2473.01,1745.1z"/>
	</g>
	<path class="st20" d="M2523.21,1798.95c0,0,47.51,51.89,49.15,71.11c1.17,13.72,9.73-41.27,9.73-41.27L2523.21,1798.95z"/>
	
		<rect x="2480.36" y="1884.78" transform="matrix(-1 -1.224647e-16 1.224647e-16 -1 5316.356 3993.6379)" class="st10" width="355.64" height="224.08"/>
	<path class="st46" d="M2780.71,2120.12c0,0,1.69-4.11,1.55-6.27c0,0-0.56-3.91-0.78-6.71c-0.07-0.89-0.11-1.67-0.08-2.17
		c0.11-2.11,0.98-6.7-0.18-11.83c-1.16-5.13-7.08-22.83-7.08-22.83l-15.98,2.38l-13.89-1.88c0,0-10.35,30.21-9.82,35.11
		c0.05,0.48,0.12,0.95,0.23,1.39c0.85,4.11,3.21,6.81,3.9,8.91c0.26,0.77,3.34,8.27,5.66,8.99c3.21,1,5.84,0.39,7.62-1.07
		c0,0,6.37,1.68,10.41-0.16c0,0,5.83,1.74,10.2-1.98C2772.44,2122,2778.56,2123.1,2780.71,2120.12z"/>
	<path class="st20" d="M2710.9,1795.28c-5.41,2.09-11.14,15.19-6.88,40.86c4.57,27.54,13.67,39.31,17.32,45.75
		c3.66,6.44,26.25,49.35,26.17,55.7c-0.22,16.53,0.17,60.17-0.36,63.51c-0.89,5.71-4.58,71.46-4.58,71.46l34.91,8.45
		c0,0,6.88-74.15,9.99-96.56c1.25-8.99,3.95-33.66,0.83-58.24c-3-23.71-20.18-76.13-22.48-80.3
		C2763.52,1841.74,2746.67,1781.43,2710.9,1795.28z"/>
</g>
<g class="st47">
	<g>
		<g>
			<path class="st23" d="M632.95,1588.3c-14.66-41-53.84-66.18-95.14-64.94c-10,0.3-20.12,2.15-30.05,5.7
				c-30.08,10.76-51.65,34.72-60.51,63.02c-6.14,19.62-6.18,41.32,1.28,62.17c0.74,2.07,1.55,4.11,2.41,6.1
				c3.92,9.03,9.07,17.2,15.18,24.38c25.63,30.13,68.15,42.86,107.6,28.76C624.65,1695.28,651.17,1639.23,632.95,1588.3z
				 M565.47,1690.42c-29.58,10.58-61.46,1.03-80.67-21.55c-4.58-5.38-8.44-11.51-11.38-18.28c-0.65-1.49-1.25-3.02-1.81-4.58
				c-5.59-15.63-5.56-31.9-0.95-46.61c6.64-21.23,22.81-39.19,45.36-47.25c7.44-2.66,15.03-4.05,22.53-4.28
				c30.96-0.93,60.34,17.95,71.33,48.69C623.53,1634.74,603.65,1676.76,565.47,1690.42z"/>
		</g>
	</g>
</g>
<linearGradient id="SVGID_19_" gradientUnits="userSpaceOnUse" x1="728.5085" y1="1286.2911" x2="728.5085" y2="3244.2371">
	<stop  offset="0" style="stop-color:#626E7A"/>
	<stop  offset="1" style="stop-color:#F5F5F5"/>
</linearGradient>
<path class="st48" d="M1041.26,1407.64H415.76c-12.86,0-23.29-10.43-23.29-23.29v-12.32c0-12.86,10.43-23.29,23.29-23.29h625.51
	c12.86,0,23.29,10.43,23.29,23.29v12.32C1064.55,1397.21,1054.13,1407.64,1041.26,1407.64z"/>
<g>
	<g>
		<g>
			<g>
				<g>
					<polygon class="st23" points="821.24,1881.61 923.9,1887.4 1005.73,1774.52 1000.2,1770.51 920.56,1880.37 818.3,1874.6 
						701.05,2008.31 578.3,1981.71 457.01,2096.15 461.7,2101.12 580.37,1989.15 703.53,2015.84 					"/>
				</g>
			</g>
		</g>
	</g>
	<g>
		<g>
			<g>
				<path class="st23" d="M720.1,2008.22c2.13,9.83-4.12,19.53-13.95,21.66c-9.84,2.13-19.54-4.12-21.66-13.95
					c-2.13-9.84,4.12-19.54,13.95-21.67C708.27,1992.13,717.97,1998.38,720.1,2008.22z"/>
			</g>
		</g>
	</g>
	<g>
		<g>
			<g>
				<path class="st23" d="M837.54,1875.4c2.13,9.84-4.12,19.53-13.95,21.66c-9.84,2.13-19.53-4.12-21.66-13.95
					c-2.13-9.84,4.12-19.54,13.95-21.67C825.71,1859.32,835.41,1865.56,837.54,1875.4z"/>
			</g>
		</g>
	</g>
	<g>
		<g>
			<g>
				<path class="st23" d="M939.05,1879.46c2.13,9.84-4.12,19.54-13.95,21.66c-9.84,2.13-19.53-4.12-21.66-13.95
					c-2.13-9.83,4.12-19.54,13.95-21.66C927.22,1863.38,936.92,1869.63,939.05,1879.46z"/>
			</g>
		</g>
	</g>
	<g>
		<g>
			<g>
				<path class="st23" d="M597.04,1983.26c2.13,9.84-4.12,19.54-13.95,21.67c-9.84,2.13-19.54-4.12-21.66-13.95
					c-2.13-9.83,4.12-19.54,13.95-21.66C585.21,1967.18,594.91,1973.42,597.04,1983.26z"/>
			</g>
		</g>
	</g>
</g>
<g>
	<rect x="561.01" y="2054.85" class="st23" width="74.6" height="14.36"/>
</g>
<g>
	<rect x="612.89" y="1907.44" class="st23" width="74.6" height="14.37"/>
</g>
<g>
	<rect x="767.63" y="2010.16" class="st23" width="74.6" height="14.36"/>
</g>
<g>
	<rect x="834.54" y="1808.42" class="st23" width="74.6" height="14.37"/>
</g>
<g>
	<rect x="942.88" y="1928.63" class="st23" width="74.6" height="14.37"/>
</g>
<g>
	<g>
		<linearGradient id="SVGID_20_" gradientUnits="userSpaceOnUse" x1="698.214" y1="1657.7954" x2="720.3222" y2="1657.7954">
			<stop  offset="0" style="stop-color:#D5E4FF"/>
			<stop  offset="1" style="stop-color:#EDFFFE"/>
		</linearGradient>
		<rect x="698.21" y="1596.35" class="st49" width="22.11" height="122.9"/>
	</g>
	<g>
		<linearGradient id="SVGID_21_" gradientUnits="userSpaceOnUse" x1="737.0303" y1="1641.4128" x2="759.1391" y2="1641.4128">
			<stop  offset="0" style="stop-color:#D5E4FF"/>
			<stop  offset="1" style="stop-color:#EDFFFE"/>
		</linearGradient>
		<rect x="737.03" y="1563.58" class="st50" width="22.11" height="155.66"/>
	</g>
	<g>
		<linearGradient id="SVGID_22_" gradientUnits="userSpaceOnUse" x1="777.7635" y1="1649.9835" x2="799.8729" y2="1649.9835">
			<stop  offset="0" style="stop-color:#D5E4FF"/>
			<stop  offset="1" style="stop-color:#EDFFFE"/>
		</linearGradient>
		<rect x="777.76" y="1580.72" class="st51" width="22.11" height="138.52"/>
	</g>
	<g>
		<linearGradient id="SVGID_23_" gradientUnits="userSpaceOnUse" x1="819.6159" y1="1669.8816" x2="841.7247" y2="1669.8816">
			<stop  offset="0" style="stop-color:#D5E4FF"/>
			<stop  offset="1" style="stop-color:#EDFFFE"/>
		</linearGradient>
		<rect x="819.62" y="1620.52" class="st52" width="22.11" height="98.72"/>
	</g>
	<g>
		<rect x="698.21" y="1641.3" class="st53" width="22.11" height="77.94"/>
	</g>
	<g>
		<rect x="737.03" y="1620.52" class="st53" width="22.11" height="98.72"/>
	</g>
	<g>
		<rect x="777.76" y="1631.39" class="st53" width="22.11" height="87.85"/>
	</g>
	<g>
		<rect x="819.62" y="1657.8" class="st53" width="22.11" height="61.45"/>
	</g>
</g>
<g>
	<g>
		<linearGradient id="SVGID_24_" gradientUnits="userSpaceOnUse" x1="862.2203" y1="1678.0181" x2="884.3292" y2="1678.0181">
			<stop  offset="0" style="stop-color:#D5E4FF"/>
			<stop  offset="1" style="stop-color:#EDFFFE"/>
		</linearGradient>
		<rect x="862.22" y="1636.79" class="st54" width="22.11" height="82.45"/>
	</g>
	<g>
		<linearGradient id="SVGID_25_" gradientUnits="userSpaceOnUse" x1="901.0372" y1="1647.6956" x2="923.146" y2="1647.6956">
			<stop  offset="0" style="stop-color:#D5E4FF"/>
			<stop  offset="1" style="stop-color:#EDFFFE"/>
		</linearGradient>
		<rect x="901.04" y="1576.15" class="st55" width="22.11" height="143.1"/>
	</g>
	<g>
		<linearGradient id="SVGID_26_" gradientUnits="userSpaceOnUse" x1="941.7704" y1="1660.8199" x2="963.8787" y2="1660.8199">
			<stop  offset="0" style="stop-color:#D5E4FF"/>
			<stop  offset="1" style="stop-color:#EDFFFE"/>
		</linearGradient>
		<rect x="941.77" y="1602.4" class="st56" width="22.11" height="116.85"/>
	</g>
	<g>
		<linearGradient id="SVGID_27_" gradientUnits="userSpaceOnUse" x1="983.6223" y1="1628.9857" x2="1005.7311" y2="1628.9857">
			<stop  offset="0" style="stop-color:#D5E4FF"/>
			<stop  offset="1" style="stop-color:#EDFFFE"/>
		</linearGradient>
		<rect x="983.62" y="1538.73" class="st57" width="22.11" height="180.52"/>
	</g>
	<g>
		<rect x="862.22" y="1675.32" class="st53" width="22.11" height="43.93"/>
	</g>
	<g>
		<rect x="901.04" y="1653.78" class="st53" width="22.11" height="65.47"/>
	</g>
	<g>
		<rect x="941.77" y="1660.82" class="st53" width="22.11" height="58.42"/>
	</g>
	<g>
		<rect x="983.62" y="1585.08" class="st53" width="22.11" height="134.16"/>
	</g>
</g>
<g>
	<g>
		<polygon class="st58" points="1421.1,2216.14 1762.38,2216.14 1654.82,2546.46 1664.88,2549.73 1776.95,2205.56 1413.42,2205.56 
			1302.42,2546.46 1312.48,2549.73 		"/>
	</g>
	<g>
		<polygon class="st58" points="1537.26,2546.46 1429.7,2216.14 1770.97,2216.14 1879.6,2549.73 1889.66,2546.46 1778.65,2205.56 
			1415.13,2205.56 1527.2,2549.73 		"/>
	</g>
	<g>
		<rect x="1389.35" y="2309.58" class="st58" width="417.71" height="10.58"/>
	</g>
	<g>
		<rect x="1346.32" y="2424.43" class="st58" width="499.76" height="10.58"/>
	</g>
</g>
<g>
	<g>
		<g>
			<path class="st17" d="M1592.12,1462.26c0,0,8.51-14.89-4.99-54.79c-13.05-38.59-58.22-35.09-72.57-10.37
				c-14.36,24.72-9.51,40.08,11.63,67.99C1547.32,1493,1583.35,1475.02,1592.12,1462.26z"/>
		</g>
	</g>
	<g>
		<g>
			<path class="st17" d="M1487.2,2148.75c0,0-2.23,16.39-2.51,18.85c-0.28,2.46-24.86-1.45-24.86-1.45l-1.99-19.51
				C1457.83,2146.64,1484.13,2146.43,1487.2,2148.75z"/>
		</g>
	</g>
	<g>
		<g>
			<path class="st59" d="M1484.95,2165.51c0,0,7.79,9.87,15.32,14.18c7.53,4.3,19.37,6.01,23.83,10.46
				c3.22,3.22,11.71,17.06-19.58,16.78c-31.29-0.28-46.38,1.95-49.73-3.35c-3.35-5.31,4.85-39.18,4.85-39.18
				S1467.3,2166.56,1484.95,2165.51z"/>
		</g>
	</g>
	<g>
		<g>
			<path class="st17" d="M1657.43,2148.75c0,0-2.24,16.39-2.51,18.85c-0.28,2.46-24.87-1.45-24.87-1.45l-1.99-19.51
				C1628.06,2146.64,1654.36,2146.43,1657.43,2148.75z"/>
		</g>
	</g>
	<g>
		<g>
			<path class="st59" d="M1655.18,2165.51c0,0,7.79,9.87,15.32,14.18c7.53,4.3,35.26,7.84,39.71,12.29
				c3.22,3.22,8.56,16.16-35.46,14.95c-31.28-0.86-46.38,1.95-49.73-3.35c-3.35-5.31,4.85-39.18,4.85-39.18
				S1639.59,2166.13,1655.18,2165.51z"/>
		</g>
	</g>
	<g>
		<g>
			<path class="st60" d="M1495.48,1740.72c0,0-12.6,39.17-10.95,72.93c1.66,33.76-6.52,70.7-9.86,105.96
				c-3.73,39.31-18.98,132.38-19.53,153.41c-0.55,21.03,2.37,88.18,2.37,88.18l30.53,0.74c0,0,25.64-162.71,32.28-179.31
				c6.64-16.6,39.57-134.96,40.68-148.24C1562.11,1821.11,1495.48,1740.72,1495.48,1740.72z"/>
		</g>
	</g>
	<g>
		<g>
			<path class="st60" d="M1622.07,1736.64c0,0,18.53,103.57,20.75,124.23c2.21,20.66,3.69,99.99,4.8,112.9
				c1.11,12.91,7.38,168.98,13.28,188.17h-34.04c0,0-34.95-113.46-34.95-167.14c0-53.68-23.15-116.7-38.09-152.12
				c-14.94-35.42-49.14-36.26-58.33-101.97C1495.48,1740.72,1609.63,1715.8,1622.07,1736.64z"/>
		</g>
	</g>
	<g>
		<g>
			<path class="st17" d="M1579.77,1472.79c0,0-3.84,11.18,0,19.15c3.84,7.98-49.06,3.19-49.06,3.19s2.39-16.48-4.52-30.04
				C1519.27,1451.53,1579.77,1472.79,1579.77,1472.79z"/>
		</g>
	</g>
	<g>
		<g>
			<path class="st60" d="M1493.03,1749.26c0,0,19.02,19.54,130.74-3.04l-1.7-9.57l-127,4.78L1493.03,1749.26z"/>
		</g>
	</g>
	<g>
		<g>
			<path class="st17" d="M1587.78,1494.53c0,0,19.54,1.99,25.12,3.06c5.58,1.06,43.16-6.72,50.87-7.52
				c7.71-0.8,40.58-23.32,41.65-25.98c1.06-2.66,20-50.6,21.06-60.97c1.06-10.37,18.45-5.02,16.95,2.13
				c-2.79,13.36-6.37,45.81-8.33,55.21c-2.12,10.15-7.8,33.15-10.99,35.98c-3.19,2.83-32.79,25.34-61.77,34.91
				c-28.98,9.57-50.79,23.66-50.79,23.66h-142.81c0,0-55.55-79.4-56.74-91.36c-1.2-11.96,38.8-91.47,46.77-101.44
				c7.98-9.97,19.51,3.25,19.51,3.25s-23.9,70.12-27.09,80.09c-3.19,9.97,27.8,53.77,36.3,53.9c8.51,0.13,30.35-2.66,40.06-3.06
				c9.7-0.4,19.94-4.65,19.94-4.65L1587.78,1494.53z"/>
		</g>
	</g>
	<g>
		<g>
			<path class="st61" d="M1649.32,1547.57c0,0-17.48,11.62-19.08,31.56c-1.6,19.94-7.98,51.44-11.17,62.21
				c-3.19,10.77,2.79,88.92,3.59,94.51c0.8,5.58-110.51,18.85-127.6,5.58c0,0-4.79-72.97-6.78-93.71
				c-1.99-20.74-11.56-70.98-14.75-77.76c-3.19-6.78-41.87-61.04-43.47-68.19c0,0,20.01-31.9,34.37-32.3c0,0,22.8,26.72,30.23,27.91
				c7.43,1.2,53-7.16,53.01-7.22c0,0,4.97,6.77,31.41-1.2c0,0,31.49,3.55,36.61,4.21c6.2,0.79,49.32-5.41,49.32-5.41
				s17.3,29.21,14.27,43.95L1649.32,1547.57z"/>
		</g>
	</g>
	<g>
		<g>
			<path class="st17" d="M1725.48,1409.35c0,0,3.9-18.48-0.8-23.79c-2.67-3.02-9.11-11.02-9.69-12.19
				c-0.59-1.17-7.49-5.14-7.49-7.05c0-1.91,6.76-4.26,12.63,1.17c5.87,5.43,9.55,6.61,11.9,6.02c2.35-0.59,5.73-20.12,6.02-24.97
				c0.29-4.85,2.17-17.63,5.2-16.75c3.03,0.88,2.88,6.46,2.88,6.46s3.53-9.69,5.88-7.78c2.35,1.91,2.06,6.61,2.06,6.61
				s4.41-5.44,5.58-1.47c1.18,3.97,0,7.49,0,7.49s4.55-2.5,4.85,3.67c0.29,6.17-1.32,24.24-4.55,30.7
				c-3.23,6.46-15.33,23.37-16.77,29.97C1741.72,1414.06,1725.48,1409.35,1725.48,1409.35z"/>
		</g>
	</g>
	<g>
		<g>
			<path class="st17" d="M1474.4,1376.89c0,0,13.29-22.33,17.81-24.33c4.52-1.99,10.9-3.12,16.48-7.11
				c5.58-3.99,12.96-7.31,12.56-8.64c-0.4-1.33-6.98-0.8-14.02,2.26c-7.04,3.06-10.14,1.58-10.8-0.02
				c-0.66-1.59,3.76-12.86,5.88-15.51c2.13-2.66,17.28-17.9,14.75-20.16c-2.52-2.26-12.36,6.11-13.96,7.84
				c0,0,7.84-16.48,4.78-17.28c-3.06-0.8-8.77,5.05-8.77,5.05s0.66-14.09-14.49,8.77c0,0,3.19-7.58-1.46-5.05
				c-4.65,2.53-9.17,16.75-10.63,23.93c-1.46,7.18-8.1,30.04-13.75,35.56C1453.12,1367.72,1474.4,1376.89,1474.4,1376.89z"/>
		</g>
	</g>
	<g>
		<g>
			<path class="st62" d="M1526.19,1465.09c0,0,7,0.62,21.89-4.52c14.89-5.14,16-31.17,19.22-28.09c6.57,6.29,12.77,1.95,15.25-1.77
				c0,0-7.27-9.57-3.9-14.18c3.37-4.61,8.85-7.97,8.85-7.97s-10.47-50.47-58.12-27.48
				C1473.55,1408.02,1526.19,1465.09,1526.19,1465.09z"/>
		</g>
	</g>
	<g>
		<g>
			<path class="st61" d="M1579.77,1491.94l-1.68-7.29c0,0-30.41-0.62-47.01,1.79l-1.75,8.72
				C1529.34,1495.16,1550.58,1504.79,1579.77,1491.94z"/>
		</g>
	</g>
	<g>
		<g>
			<path class="st17" d="M1572.27,1426.1c-2.76-4.59-12.98-7.69-14.18,5.32c-0.93,10.08,18.26,21.09,18.43,11.7
				C1576.7,1433.72,1574.11,1429.16,1572.27,1426.1z"/>
		</g>
	</g>
	<g>
		<g>
			<path class="st63" d="M1726.2,1405.15c0,0,10.97,0.27,16.29,5.08c0,0,0.35,3.05-0.89,5.46c0,0-9.51-4.44-16.81-5.27
				C1724.81,1410.42,1724.93,1406.43,1726.2,1405.15z"/>
		</g>
	</g>
	<g>
		<g>
			<path class="st62" d="M1739.14,1407.89c1.01,2.4-0.11,5.17-2.51,6.18c-2.4,1.01-5.17-0.11-6.18-2.51
				c-1.01-2.4,0.11-5.17,2.51-6.18C1735.36,1404.36,1738.13,1405.49,1739.14,1407.89z"/>
		</g>
	</g>
</g>
<g id="XMLID_24_">
	<path id="XMLID_26_" class="st64" d="M575.9,681.16L575.9,681.16c-92.16,0-166.88-74.71-166.88-166.88l0,0
		c0-92.16,74.71-166.88,166.88-166.88l0,0c92.16,0,166.88,74.71,166.88,166.88l0,0C742.77,606.45,668.06,681.16,575.9,681.16z"/>
	<path id="XMLID_25_" class="st23" d="M486.98,570.15c16.15,10.35,35.32,16.39,55.92,16.39c67.74,0,106-57.21,103.7-108.53
		c7.12-5.14,13.31-11.56,18.2-18.89c-6.55,2.9-13.58,4.86-20.95,5.74c7.53-4.51,13.32-11.66,16.04-20.18
		c-7.05,4.18-14.86,7.22-23.16,8.86c-6.66-7.09-16.14-11.52-26.64-11.52c-23.55,0-40.85,21.97-35.54,44.79
		c-30.32-1.52-57.21-16.04-75.19-38.12c-9.56,16.4-4.96,37.86,11.29,48.71c-5.98-0.19-11.62-1.84-16.53-4.57
		c-0.39,16.91,11.72,32.71,29.26,36.24c-5.14,1.4-10.76,1.71-16.47,0.62c4.63,14.5,18.11,25.04,34.08,25.34
		C525.66,567.06,506.34,572.43,486.98,570.15z"/>
</g>
<g id="XMLID_1_">
	<path id="XMLID_3_" class="st65" d="M2585.35,528.1L2585.35,528.1c-113.39,0-205.3-91.92-205.3-205.3l0,0
		c0-113.38,91.92-205.3,205.3-205.3l0,0c113.38,0,205.3,91.92,205.3,205.3l0,0C2790.65,436.18,2698.73,528.1,2585.35,528.1z"/>
	<path id="XMLID_2_" class="st23" d="M2554.06,446.89h49.98V321.74h34.87l3.72-41.9h-38.58c0,0,0-15.64,0-23.87
		c0-9.88,1.98-13.78,11.54-13.78c7.69,0,27.05,0,27.05,0V198.7c0,0-28.51,0-34.6,0c-37.19,0-53.96,16.38-53.96,47.73
		c0,27.31,0,33.41,0,33.41h-25.99v42.43h25.99V446.89z"/>
</g>
<g>
	<g>
		<path class="st66" d="M637.65,1019.88l20.01-3.97l31.59-69.5l-7.92-39.94c0,0,30.55-8.03,37.28,44.98
			c6.73,53.02,8.03,38.92,8.03,38.92s65.71-12.77,72.3-8.15c4.79,3.36,19.52,68.22,27.22,103.46c3.88,17.74-3.76,36.47-19.49,43.96
			c-2.23,1.07-4.54,1.89-6.88,2.35c-16.38,3.25-102.69,6.53-102.69,6.53l-34.56,6.85L637.65,1019.88z"/>
	</g>
	<g>
		<polygon class="st66" points="578.21,1020.27 617.65,1154.67 651.91,1147.87 625.32,1013.79 		"/>
	</g>
</g>
<g id="XMLID_68_">
	<path id="XMLID_74_" class="st67" d="M965.88,900.02L965.88,900.02c-102.7,0-185.96-83.26-185.96-185.96l0,0
		c0-102.7,83.26-185.96,185.96-185.96l0,0c102.7,0,185.96,83.26,185.96,185.96l0,0C1151.84,816.76,1068.58,900.02,965.88,900.02z"/>
	<g id="XMLID_69_">
		<g id="XMLID_71_">
			<rect id="XMLID_73_" x="881.56" y="672.61" class="st23" width="38.49" height="124.33"/>
			<path id="XMLID_72_" class="st23" d="M900.61,656.33c12.57,0,22.76-10.28,22.76-22.95c0-12.67-10.19-22.94-22.76-22.94
				c-12.57,0-22.76,10.27-22.76,22.94C877.86,646.05,888.04,656.33,900.61,656.33z"/>
		</g>
		<path id="XMLID_70_" class="st23" d="M981.57,731.68c0-17.48,8.04-27.89,23.45-27.89c14.15,0,20.95,10,20.95,27.89
			c0,17.91,0,65.27,0,65.27h38.31c0,0,0-45.42,0-78.72c0-33.3-18.88-49.41-45.24-49.41c-26.37,0-37.47,20.54-37.47,20.54v-16.75
			h-36.92v124.33h36.92C981.57,796.94,981.57,750.83,981.57,731.68z"/>
	</g>
</g>
<g>
	<path class="st68" d="M2320.15,329.14c-5.24-26.62-31.5-47.44-58.61-46.46c-26.87,0.97-51.34,23.24-54.99,49.85
		c-3.89-26.58-28.55-48.63-55.43-49.36c-27.12-0.74-53.2,20.31-58.2,46.98c-3.64,19.42,3.02,39.64,13.96,56.1
		c10.93,16.46,25.86,29.79,40.62,42.93c20.68,18.4,39.79,35.7,60.47,54.11c20.51-18.59,37.97-36.05,58.48-54.64
		c14.64-13.27,29.46-26.73,40.24-43.29C2317.48,368.8,2323.96,348.52,2320.15,329.14z"/>
</g>
<g>
	<g>
		<path class="st62" d="M985.28,2717.07c0,0-9.79,14.65-23.53,17.82c-13.74,3.17-27.27,8.2-27.37,16.87
			c-0.1,8.67,39.72,13.84,55.44,5.1c23.46-13.04,25.85-9.11,28.45-15.63c2.6-6.52-3.12-23.95-2.96-26.03
			C1015.51,2712.63,985.28,2717.07,985.28,2717.07z"/>
	</g>
	<g>
		<path class="st69" d="M986.8,2709.84c0,0-1.79,7.08-1.52,7.23c0.27,0.15,30.96,3.81,30.03-1.87c-0.75-4.61-1.83-9.61-1.83-9.61
			L986.8,2709.84z"/>
	</g>
	<g>
		<path class="st62" d="M1088.56,2716.09c0,0-6.99,14.02-18.92,18.79c-12.76,5.1-22.99,10.97-22.76,19.41
			c0.23,8.45,31.19,17.01,53.71,0.8c14.23-10.24,18.74-10.29,21.02-16.74c2.28-6.45-3.96-23.21-3.88-25.24
			C1117.84,2710.61,1088.56,2716.09,1088.56,2716.09z"/>
	</g>
	<g>
		<path class="st69" d="M1088.22,2708.82c0,0,0.08,7.14,0.35,7.28c0.26,0.14,29.93,2.58,29.17-2.98c-0.6-4.41-2.88-9.75-2.88-9.75
			L1088.22,2708.82z"/>
	</g>
	<g>
		<path class="st70" d="M979.46,2280.67c0,0-27.56,121.56-33.85,158.58c-5.36,31.52-9.63,64.33-7.06,87.08
			c3.18,28.17,43.05,174.14,41.38,182.4c-1.67,8.26,41.72,1.32,41.72,1.32s-30.32-162.83-24.27-193.14
			c4.49-22.45,43.8-171.55,49.82-163.91c6.02,7.65,13.49,140.72,17.96,162.81c4.46,22.09,18.16,196.63,18.16,196.63
			s30.62,4.52,38.8-2.4c0,0,3.72-149.04,0.88-190.45c-1.08-15.78,18.49-189.24-6.61-259.08
			C1103.12,2223.63,979.46,2280.67,979.46,2280.67z"/>
	</g>
	<g>
		<path class="st71" d="M859.5,2170.17c19.64-2.76,81.44,24.62,87.05,22.55c3.86-1.42,12.92-30.95,19.4-53.29
			c3.83-13.22,6.75-23.93,7.16-24.81l0.02-0.05c-0.06,0.59-1.06,10.7,0.21,23.98c0.08,0.86,0.18,1.73,0.28,2.62
			c0.03,0.23,0.06,0.46,0.09,0.69c0.58,4.75,1.46,9.83,2.78,14.96c1.96,7.57,2.89,17.54,3.24,28.06v0.04c0,0.08,0,0.16,0.01,0.24
			c0,0.24,0.02,0.48,0.02,0.73c0,0.1,0.01,0.2,0.01,0.3c0.55,19.14-0.77,39.77-1.32,50.75c-0.86,17.01,4.73,24.67,4.89,24.89
			c0,0.01,0,0.01,0,0.01l5.92-0.83l4.28-0.6l0.05-0.01l5.71-0.8l22.41-3.15l8.12-1.14l1.92-0.27l14.2-2l40.03-5.63l4.39-0.61
			l1.81-0.25l15.1-2.13l6.82-0.95l0.02,0c0,0,5.8-41.1,6.24-63.31c0.4-20.41,11.32-61.83,13.11-68.46c0.01-0.05,0.02-0.09,0.04-0.14
			c0.01-0.06,0.03-0.12,0.05-0.18c0.03-0.11,0.06-0.21,0.08-0.29c0.01-0.05,0.02-0.1,0.04-0.14c0-0.02,0.01-0.03,0.01-0.04
			c0-0.01,0.01-0.03,0.01-0.04c0.01-0.05,0.01-0.07,0.01-0.07s32.67,34.33,39.01,49.3c1.93,4.55,7.84,16.91,15.37,31.95
			c5.15-9.82,8.37-16.65,8.37-18.36c0-0.21-0.01-0.43-0.01-0.67c-0.48-14.81-16-74.86-28.25-114.09
			c-9.51-19.12-17.71-34.57-20.34-36.46c-3.99-2.86-20.76-10.04-35.4-15.85c-0.48-0.19-0.96-0.38-1.43-0.56
			c-1.37-0.54-2.71-1.07-4.02-1.58c-0.65-0.25-1.3-0.5-1.93-0.74c-0.35-0.13-0.69-0.26-1.04-0.39c-0.28-0.11-0.56-0.22-0.84-0.32h0
			c-7.32-2.78-12.88-4.73-14.03-4.79c-0.19-0.01-0.5-0.01-0.91,0.01c-0.48,0.01-1.11,0.04-1.85,0.09
			c-9.05,0.53-36.05,3.06-44.74,3.89c-1.58,0.15-2.56,0.24-2.71,0.26c-0.01,0-0.02,0-0.02,0s-4.14,1.89-10.37,4.74l0,0.01
			l-0.58,0.26c-3.77,1.73-8.13,4.03-12.73,6.55c-9.03,4.95-19.01,10.74-27.29,14.67c-8.12,3.86-19.23,9.24-20.17,9.99l-41.11,118.55
			l-71.32-13.03L859.5,2170.17z"/>
	</g>
	<g>
		<path class="st72" d="M983.34,2261.81c0,0-3.01,3.6-3.88,18.86c0,0,123.84-14.45,136.93-20.14c0,0,0.51-16.81-2.26-17.11
			C1111.07,2243.1,983.34,2261.81,983.34,2261.81z"/>
	</g>
	<g>
		<path class="st17" d="M1088.95,1993.98c-0.38,19.44-38.02,30.07-38.02,30.07s-15.74-19.73-11.98-21.62
			c1.48-0.74,2.08-3.69,2.26-6.99c0.17-3.14-0.03-6.61-0.21-8.81c-0.11-1.37-0.22-2.26-0.22-2.26s5.38-5.67,12.22-12.43
			c11.95-11.82,28.39-26.96,28.41-20.94c0,0.32-0.04,0.7-0.14,1.14C1078.38,1965.68,1088.95,1993.98,1088.95,1993.98z"/>
	</g>
	<g>
		<path class="st62" d="M1085.83,2246.4c0,0,2.7,17.04,2.94,21.49l5.73-1.14c0,0-1.58-18.03-2.51-21.06L1085.83,2246.4z"/>
	</g>
	<g>
		<path class="st62" d="M993.67,2259.82c0,0-2.17,15.49-2.22,21.35l6.06-0.79c0,0,1.24-19.35,1.93-21.37L993.67,2259.82z"/>
	</g>
	<g>
		<path class="st21" d="M1074.46,1965.5C1074.46,1965.5,1074.46,1965.5,1074.46,1965.5c-0.08,0.12-1.67,2.5-4.4,5.93
			c-5.78,7.27-16.64,19.2-28.85,24c0.17-3.14-0.03-6.61-0.21-8.81c-1.25-0.03-2.5-0.18-3.74-0.45c3.35-5.85,8.18-11.98,8.18-11.98
			l7.55-2.26L1074.46,1965.5z"/>
	</g>
	<g>
		<path class="st17" d="M1081.68,1951.25c-3.26,7.08-6.35,12.21-7.22,14.25c0,0,0,0,0,0c-0.57,1.32-2.13,3.48-4.4,5.93
			c-6.2,6.68-17.73,15.49-29.06,15.19c-1.25-0.03-2.5-0.18-3.74-0.45c-4.58-1-9.98-3.13-12.95-8.95
			c-23.48-45.97-6.48-83.55-6.48-83.55s64.19-18.15,74.24,1.17C1099.11,1908.39,1089.33,1934.61,1081.68,1951.25z"/>
	</g>
	<g>
		<path class="st45" d="M1017.83,1893.66c0,0-5.96-0.33-7.44-11.63c-1.46-11.17,1.49-14.26,1.49-14.26s26.5-11.09,36.02-12.54
			c9.52-1.44,32.92-2.83,38.4,3.44c0,0,13.33-3.1,16.96,19.03c5.76,35.1-19.63,69.18-19.63,69.18s0.22-22.93-4.84-25.97
			c-5.06-3.04-9.42,4.19-9.42,4.19l-10.34,1.85c0,0,15.71-33.92-3.13-35.18C1037.04,1890.52,1028.62,1895.63,1017.83,1893.66z"/>
	</g>
	<g>
		<path class="st17" d="M1069.66,1915.96c0.98-10.1,19.25-13.96,18.03-3.37c-1.22,10.59-10.22,20.76-14.38,20.4
			C1069.15,1932.64,1068.91,1923.66,1069.66,1915.96z"/>
	</g>
	<g>
		<path class="st44" d="M1196.46,2173.64c0-0.21-0.01-0.43-0.01-0.67c-0.35-14.77-7.62-73.92-19.87-113.15
			c-5.94-19.05-7.32-32.35-9.62-34c-3.99-2.86-39.45-13.35-54.5-19.25c-0.48-0.19-0.96-0.38-1.43-0.56
			c-1.37-0.54-2.71-1.07-4.02-1.58c-0.65-0.25-1.3-0.5-1.93-0.74c-0.35-0.13-0.69-0.26-1.04-0.39c-0.28-0.11-0.56-0.22-0.84-0.32
			c-0.02,0.02-0.05,0.05-0.08,0.08c-1.34,1.5-8.3,9.41-16.61,21.23c-15.54,22.1-35.78,57.89-32.68,90.93
			c0.99,10.61,2.22,25.84,4.29,42.93c0.18,1.46,0.36,2.93,0.55,4.42c0.5,3.93,1.05,7.95,1.65,12.02c0.36,2.44,0.74,4.9,1.13,7.37
			c4.12,25.62,17.02,43.09,28.47,63.98c0.1,0.18,0.2,0.35,0.3,0.53c0.05,0.1,0.11,0.2,0.16,0.3c0.24,0.44,0.49,0.89,0.73,1.34
			c0.39,0.73,0.78,1.47,1.17,2.21c0.22,0.42,0.44,0.85,0.66,1.28c2.19,4.21,4.34,8.51,6.42,12.83c1.35,2.79,2.67,5.59,3.96,8.37
			c0.13,0.29,0.27,0.58,0.4,0.87c0,0,2.11,4.9,4.81,11.19c0.99,2.31,2.07,4.81,3.15,7.32c0.74,1.72,1.48,3.46,2.2,5.14
			c0.63,1.47,1.25,2.9,1.83,4.26c1.3,3.03,2.43,5.69,3.22,7.54c0.59,1.39,0.98,2.33,1.11,2.65c3.94,9.86,6.78,17.47,8.1,21.02
			c0.52,1.43,0.8,2.21,0.8,2.21l39.62-21.87c7.52-3.77,3.59-24.04,0.76-31.96c-2.35-6.58-5.66-13.64-9.39-20.94
			c-1.53-2.98-3.12-6.01-4.75-9.05c12.4-21.66,24.95-44,32.91-59.18C1193.24,2182.17,1196.46,2175.35,1196.46,2173.64z
			 M1133.47,2111.65c0.01-0.05,0.02-0.09,0.04-0.14c0.01-0.06,0.03-0.12,0.05-0.18c0.02-0.1,0.05-0.19,0.08-0.29
			c0.01-0.05,0.02-0.1,0.04-0.14c0-0.02,0.01-0.03,0.01-0.04c0-0.01,0.01-0.03,0.01-0.04c0,0,19.27,30.12,17.82,56.29
			c-0.22,4.07-4.27,14.37-10.17,27.56c0,0.01,0,0.01-0.01,0.02c-2.14,4.81-4.54,10-7.08,15.42c-0.1-0.22-0.19-0.45-0.28-0.68
			c-3.69-8.99-6.08-17.43-6.08-24.81C1127.89,2184.61,1129.52,2127.2,1133.47,2111.65z"/>
	</g>
	<g>
		<path class="st44" d="M833.18,2129.99l89.7,19.54l42.76-111.82c0.95-0.75,13.2-7.35,21.32-11.21c8.45-4.02,19.14-8.99,28.63-13.37
			c4.53-2.1,8.8-4.05,12.4-5.71l0.3,0.23c0,0-5.29,17.63-12.15,61.64c0,0,0,0.01,0,0.01c-0.23,1.48-0.46,2.98-0.7,4.52
			c-0.02,0.18-0.05,0.36-0.08,0.53c-0.15,1.02-0.31,2.05-0.46,3.09c-0.02,0.12-0.04,0.25-0.06,0.37c-0.11,0.7-0.21,1.41-0.31,2.12
			c-0.26,1.74-0.52,3.51-0.77,5.31c-3.06,21.42-7.34,57.88-11.46,94.68v0.02c-3.26,29.01-10.67,58.77-13.03,80.99
			c0,0.01,0,0.03,0,0.04c-0.47,4.35-1.58,10.15-3.08,16.7c-0.17,0.74-0.34,1.49-0.52,2.25c-6.64,28.04-19.52,67.72-19.52,67.72
			l-3.75-3.47l-11.11-10.26c-2.56-2.36-3.53-5.98-2.5-9.3c6.16-19.88,27.11-90.26,30.95-139.73c0-0.01,0-0.03,0-0.04
			c1.2-15.54-3.34-30.19-5.98-44.07c-0.05,0.12-0.09,0.24-0.13,0.36c-2.21,6.13-4.65,12.8-7.11,19.3v0
			c-6.61,17.44-13.38,33.59-16.19,34.62c-6.27,2.31-124.39-29.99-125.2-34.62L833.18,2129.99z"/>
	</g>
	<g>
		<path class="st73" d="M1092.76,2051.2l-18.31,10.32l7.82,7.98l-20.83,112.45c-4.25-26.36-6.18-51.39-7.62-66.74
			c-4.79-51.09,46.2-108.72,49.38-112.25c2.45,0.93,5.09,1.96,7.83,3.04L1092.76,2051.2z"/>
	</g>
	<g>
		<path class="st73" d="M1028.58,2007.15c0,0-6.84,22.34-14.81,78.1c-3.06,21.42-7.34,57.88-11.47,94.68l-4.26-105.31l8.72-9.45
			l-7.75-9.69l16.59-42.36c4.53-2.1,8.8-4.06,12.4-5.71L1028.58,2007.15z"/>
	</g>
	<g>
		<path class="st74" d="M1104.13,2003.2l-15.18-9.22c0,0-0.43,8.32-38.02,30.07l10.68,30.07L1104.13,2003.2z"/>
	</g>
	<g>
		<path class="st74" d="M1040.93,1998.17c0,0,0.59,8.98,10,25.87l-20.84,27.16l-1.52-44.05L1040.93,1998.17z"/>
	</g>
	<g>
		<path class="st75" d="M1050.99,2024.04c0,0,4.04,16.15,2.58,20.67c0,0-8.88,3.23-15.26-0.81
			C1038.31,2043.91,1042.83,2032.6,1050.99,2024.04z"/>
	</g>
	<g>
		<g>
			<path class="st76" d="M1030.12,2256.98c-2.26-11.4-0.11-45.54-0.02-46.99l1.93,0.12c-0.02,0.35-2.23,35.34-0.02,46.49
				L1030.12,2256.98z"/>
		</g>
	</g>
	<g>
		<path class="st77" d="M1045.93,2251.73c0,0-18.22,2.17-24.25,3.68l0.79,20.43l23.86-2.55L1045.93,2251.73z"/>
	</g>
	<g>
		<path class="st75" d="M1041.94,2042.46c0,0-20.32,51.32-17.01,108.77c3.44,59.56,9.07,81.16,9.07,81.16l12.53,15.71l5.53-19.31
			c0,0-16.82-75.94-5.96-149.83c1.97-13.39,4.89-38.76,4.89-38.76L1041.94,2042.46z"/>
	</g>
	<g>
		<path class="st17" d="M1103.01,2284.84c0,0-4.36,8.72-8.72,10.17c-4.36,1.45-10.72,8.54-10.72,8.54l30.71,16.17
			c0,0,8.18-15.99,8.54-26.16C1123.18,2283.38,1103.01,2284.84,1103.01,2284.84z"/>
	</g>
	<g>
		<path class="st71" d="M1100.09,2285.66l-2.03,4.09c0,0,19.5,14.26,24.76,15.17l1.8-5.45L1100.09,2285.66z"/>
	</g>
	<g>
		<path class="st44" d="M1098.06,2285.83c0,0,14.62,12.09,26.93,17.66l41.42-74.5l-21.46-41.49
			C1144.95,2187.49,1099.03,2278.57,1098.06,2285.83z"/>
	</g>
	<g>
		<path class="st70" d="M974.33,2114.76c-0.68,13.78-0.58,26.02-0.58,26.02s0,0,0,0.01c0,0.07-0.02,0.44-0.05,1.06
			c-0.03-0.23-0.06-0.46-0.09-0.69c-2.21,6.13-4.65,12.8-7.11,19.3c-0.57-7.52-0.72-14.54-0.55-21.03
			c0.99-38.65,13.14-58.91,13.14-58.91C976.31,2087.25,974.97,2101.7,974.33,2114.76z"/>
	</g>
	<g>
		<path class="st70" d="M1159.93,2260.23l-33.16,40.05l28.41-49.1C1156.81,2254.22,1158.41,2257.24,1159.93,2260.23z"/>
	</g>
	<g>
		<path class="st78" d="M919.12,2210.01h-76.56c-5.25,0-9.81-3.59-11.05-8.69l-33.26-137.3c-1.73-7.16,3.69-14.04,11.05-14.04h76.56
			c5.25,0,9.81,3.59,11.05,8.69l33.25,137.31C931.9,2203.12,926.48,2210.01,919.12,2210.01z"/>
	</g>
	<g>
		<g>
			<path class="st17" d="M825.47,2171.84c3.75-3.47,10.97-5.48,17.16-9.61c6.19-4.14,1.02-8.4,1.02-8.4
				c6.36-2.18,5.67-5.09,4.86-7.06c-1.1-2.67-8.04-1.91-8.04-1.91s6.23-1.38,8.79-2.51c2.56-1.13,1.69-5.6-2.25-7.01
				c-3.94-1.41-20,2.55-20,2.55s2.62-1.28,10.54-5.26c7.92-3.97,9.66-7.59,4.99-9.33c-3.25-1.21-9.62,1.32-21.87,9.55
				c-9.22,6.19-8.47,7-8.47,7S821,2175.99,825.47,2171.84z"/>
		</g>
	</g>
</g>
<g>
	<g>
		<g>
			<g>
				<path class="st17" d="M320.74,2046.15c0,0,3.43,5.63,3.86,10.22c0.34,3.63,3.4,9.07,4.72,12.07c1.32,3,5.58,16.59,5.74,20.12
					c0.06,1.45-3.16,10.55-2.7,13.47c0.46,2.91,2.12,8.69-0.49,9.07c-2.62,0.38-5.58-4.35-5.58-4.35s0.25,2.68-1.97,3.71
					c-4.3,1.99-6.58,0.24-6.58,0.24s-1.59,2.95-3.58,3.35c-4.39,0.88-6.55-0.88-6.55-0.88s-1.94,1.66-4.97,1.6
					c-3.88-0.08-5.52-3.43-5.52-3.43s-4.92,0.99-6.35-1.3c-1.43-2.29-1.18-4.74-1.77-6.82c-0.59-2.08-0.14-20.86,6.24-34.38
					c6.38-13.52-1.62-26.71-1.62-26.71L320.74,2046.15z"/>
			</g>
		</g>
	</g>
	<g>
		<g>
			<path class="st79" d="M326.97,2104.98c0,0,0.44-16.85-4-20.44c-4.43-3.59-4.94,2.49-4.94,2.49s0.6-6.01-4.24-6.82
				c-4.85-0.81-5.05,6.33-5.05,6.33s-0.79-4.63-5.88-3.68c-5.09,0.95-3.88,6.87-3.88,6.87s-4.86-5.8-8.02-0.23
				c-5.33,9.41-0.19,20.51-0.19,20.51s1.5,2.55,6.35,1.3c0,0,3.24,6.53,10.49,1.83c0,0,7.42,4.09,10.13-2.46
				C317.73,2110.69,325.91,2114.57,326.97,2104.98z"/>
		</g>
	</g>
	<path class="st80" d="M377.9,1803.43c0,0-28.84,96.14-38.59,131.6c-3.06,11.12-10.45,117.33-11.76,121.61
		c-1.31,4.28-37.89,10.13-37.89,10.13s4.43-132.87,4.85-140.12c0.41-7.25,40.37-155.62,51.99-160.92c8.71-3.97,13.3-0.69,24.27,7.46
		C386.16,1784.62,377.9,1803.43,377.9,1803.43z"/>
	<path class="st46" d="M735.48,1650.39c0,0-0.63,3.73-1.7,5.23c0,0-2.16,2.58-3.59,4.5c-0.45,0.61-0.83,1.16-1.04,1.53
		c-0.87,1.57-2.31,5.29-5.45,8.48c-3.14,3.19-15.39,13.33-15.39,13.33l-10.49-8.91l-10.89-4.89c0,0,6.1-26.51,8.69-29.82
		c0.25-0.32,0.52-0.63,0.79-0.9c2.46-2.59,5.38-3.48,6.83-4.7c0.53-0.44,6.14-4.48,8.14-3.96c2.77,0.72,4.4,2.34,5.04,4.2
		c0,0,5.37,1.65,7.46,4.8c0,0,5,1.36,6.49,6.02C730.34,1645.31,735.26,1647.26,735.48,1650.39z"/>
	<g>
		<g>
			<path class="st81" d="M532.01,1829.18l7.45-2.76c0,0-9.29-21.82-13.35-21.29c-4.67,0.61-10.51,2.15-10.51,2.15L532.01,1829.18z"
				/>
		</g>
	</g>
	<g>
		<g>
			<path class="st82" d="M533.71,1832.94c-0.95-0.71-15.84-29.27-15.84-29.27l-31.81,4.32l17.19,33.83L533.71,1832.94z"/>
		</g>
	</g>
	<g>
		<g>
			<path class="st83" d="M354.5,2459.84c0,0-2.63,18.25-2.96,20.99c-0.33,2.74-29.25-1.61-29.25-1.61l-2.34-21.73
				C319.95,2457.49,350.88,2457.26,354.5,2459.84z"/>
		</g>
	</g>
	<g>
		<g>
			<path class="st84" d="M351.85,2478.51c0,0,9.16,11,18.03,15.79c8.86,4.79,22.79,6.69,28.03,11.65c3.78,3.58,13.78,19-23.03,18.69
				c-36.81-0.31-54.56,2.18-58.5-3.73c-3.94-5.91,5.71-43.64,5.71-43.64S330.8,2480.41,351.85,2478.51z"/>
		</g>
	</g>
	<g>
		<g>
			<path class="st83" d="M561.72,2459.84c0,0-2.63,18.25-2.96,20.99c-0.33,2.74-29.25-1.61-29.25-1.61l-2.34-21.73
				C527.17,2457.49,558.11,2457.26,561.72,2459.84z"/>
		</g>
	</g>
	<g>
		<g>
			<path class="st84" d="M559.07,2478.51c0,0,9.16,11,18.03,15.79s41.48,8.73,46.72,13.69c3.78,3.58,10.07,18-41.72,16.65
				c-36.8-0.96-54.56,2.18-58.5-3.73c-3.94-5.91,5.71-43.64,5.71-43.64S537.52,2480.62,559.07,2478.51z"/>
		</g>
	</g>
	<g>
		<g>
			<path class="st84" d="M378.45,1990.88c0,0-27.18,43.17-25.15,82.2c2.03,39.03-9.85,81.64-13.94,122.41
				c-4.55,45.45-23.18,153.05-23.85,177.37c-0.68,24.31,2.89,101.95,2.89,101.95l37.28,0.85c0,0,31.31-188.11,39.42-207.31
				c8.11-19.19,48.32-156.03,49.68-171.39C446.13,2081.6,378.45,1990.88,378.45,1990.88z"/>
		</g>
	</g>
	<g>
		<g>
			<path class="st84" d="M521.5,1996.73c0,0,20.48,106.97,23.18,130.86c2.7,23.89,4.51,115.6,5.86,130.53
				c1.35,14.93,12.63,194.91,16.22,217.54H519.1c0,0-36.59-131.17-36.59-193.23c0-62.06-28.27-134.92-46.51-175.87
				c-18.25-40.95-60.01-41.92-71.23-117.89C364.77,1988.67,506.31,1972.63,521.5,1996.73z"/>
		</g>
	</g>
	<g>
		<g>
			<path class="st17" d="M423.79,1627.88c0,0,36.48-13.62,53.29,14.14c16.82,27.77,15.2,83.35-3.19,90.19
				c-18.39,6.84-46.01,3.26-55.42-14.11c-9.41-17.37-17.91-42.49-17.5-59.28C401.39,1642.03,414.22,1632.73,423.79,1627.88z"/>
		</g>
	</g>
	<g>
		<g>
			<path class="st17" d="M469.94,1733.48c0,0-1.52,9.85,0.99,14.7c2.51,4.85-47.26,4.98-47.26,4.98s-4.04-26.39-11.7-48.68
				C404.32,1682.18,469.94,1733.48,469.94,1733.48z"/>
		</g>
	</g>
	<g>
		<g>
			<path class="st62" d="M411.98,1704.48c0,0,3.43,5.67,17.45,3.47c14.02-2.2,31.12-20.85,36.98-22.9c5.85-2.05,5.91-5.49,5.91-5.49
				l3.66,5.35l6.22,0.39c0,0-5.67-16.69,2.88-23.49c8.56-6.81-8.88-54.01-53.84-38.29c0,0-34.53,9.52-33.28,29.16
				C399.22,1672.32,404.25,1694.69,411.98,1704.48z"/>
		</g>
	</g>
	<g>
		<g>
			<path class="st85" d="M473.88,1747.6c0,0-0.16-9.27-4.36-10.16c-4.2-0.89-46.38-4.94-51.53-2.92v10.8
				C417.99,1745.32,427.93,1751.43,473.88,1747.6z"/>
		</g>
	</g>
	<g>
		<g>
			<path class="st17" d="M471.39,1672.41c-0.79-3.3-9.16-12.71-12.37-2.63c-3.21,10.08,4.85,23.64,9.34,22.48
				C472.85,1691.1,473.38,1680.77,471.39,1672.41z"/>
		</g>
	</g>
	<g>
		<g>
			<path class="st75" d="M641.26,1857.11c-0.02-0.01-0.04-0.01-0.07,0C641.48,1857.23,641.52,1857.24,641.26,1857.11z"/>
		</g>
	</g>
	<g>
		<g>
			<path class="st80" d="M543.64,1761.63c-28.92-3.81-69.76-14.04-69.76-14.04l-55.89-2.28c0,0-51.3,11.29-71.5,20.42
				c-1.92,0.86-1.92,45.76-7.18,57.54l16.75,35.34c0,0,9.67,69.99,11.68,101.12c0.92,14.29-19.95,134-19.95,134
				s22.37,6.59,60.51,10.79c38.15,4.2,133.46-1.52,134.06-6.03c0.6-4.51-18.46-167.76-19.3-176.22c-1.3-12.98,4.47-81.93,4.47-81.93
				c8.81-6.83,86.14-42.73,107.23-61.43c5.65-5.01,29.48-28.21,36.25-36.22c23.99-28.37,43.65-52.7,46.04-57.94
				c2.72-2.98-26.06-18.63-28.67-19.5c-2.28-0.76-34.71,41.25-47.19,54.77c-5.56,6.03-28.7,22.85-28.7,22.85
				S561.73,1762.67,543.64,1761.63z"/>
		</g>
	</g>
	<g>
		<g>
			<path class="st62" d="M413.4,1631.16c0,0-46.51,3.64-1.43,73.32L413.4,1631.16z"/>
		</g>
	</g>
</g>
</svg>
